<svg version="1.1" xmlns="http://www.w3.org/2000/svg" width="706" height="441">
<path d="M0 0 C232.98 0 465.96 0 706 0 C706 145.53 706 291.06 706 441 C473.02 441 240.04 441 0 441 C0 295.47 0 149.94 0 0 Z " fill="#FEFEFE" transform="translate(0,0)"/>
<path d="M0 0 C155.1 0 310.2 0 470 0 C458 37 458 37 453 52 C453.37342375 55.71916487 453.70646921 57.71399208 455 61 C455.50631893 62.59857297 456.01028628 64.1978922 456.51220703 65.79785156 C457.08980404 67.49690081 457.67184505 69.19444436 458.2578125 70.890625 C458.88946725 72.75255521 459.52097335 74.61453585 460.15234375 76.4765625 C461.14174235 79.37623492 462.13359476 82.27503563 463.12841797 85.17285156 C464.09470263 87.99328105 465.05173343 90.81672267 466.0078125 93.640625 C466.3077713 94.50528381 466.6077301 95.36994263 466.91677856 96.26080322 C467.19061371 97.07224792 467.46444885 97.88369263 467.74658203 98.71972656 C467.98925812 99.42760315 468.2319342 100.13547974 468.48196411 100.86480713 C469 103 469 103 469 108 C314.56 108 160.12 108 1 108 C2.12420638 99.00634892 2.12420638 99.00634892 3.5222168 95.10375977 C3.82890793 94.2324794 4.13559906 93.36119904 4.45158386 92.46351624 C4.94541313 91.09132179 4.94541313 91.09132179 5.44921875 89.69140625 C6.13954417 87.70798568 6.82897007 85.72425184 7.51757812 83.74023438 C8.60091647 80.64501707 9.69100017 77.55273111 10.79711914 74.46557617 C11.86837708 71.46428721 12.91062542 68.45412846 13.94921875 65.44140625 C14.28451096 64.52863419 14.61980316 63.61586212 14.96525574 62.6754303 C17.1039193 56.383711 17.09287752 52.26980834 15 46 C14.74492172 45.17379654 14.48984344 44.34759308 14.22703552 43.49635315 C13.36187677 40.75517731 12.4486627 38.033961 11.5234375 35.3125 C11.19332672 34.32878418 10.86321594 33.34506836 10.52310181 32.33154297 C9.47803082 29.21956343 8.42683165 26.10970026 7.375 23 C6.31711442 19.86138211 5.26052145 16.72233702 4.20547485 13.58276367 C3.55077297 11.63567398 2.89422524 9.68920381 2.23568726 7.7434082 C1.94183136 6.87159912 1.64797546 5.99979004 1.34521484 5.1015625 C1.08477386 4.33150879 0.82433289 3.56145508 0.55599976 2.76806641 C0 1 0 1 0 0 Z " fill="#016F42" transform="translate(137,268)"/>
<path d="M0 0 C5.17542317 4.29852423 8.52875793 9.07810943 11.2265625 15.203125 C11.59523438 16.02425781 11.96390625 16.84539062 12.34375 17.69140625 C20.74691012 38.39262186 19.65695629 66.02129749 11.5390625 86.703125 C6.8235203 96.79461702 0.74350735 103.3043199 -9.7734375 107.203125 C-20.23018554 110.54787606 -30.41583253 109.68191501 -40.7734375 106.203125 C-43.86197021 104.56441591 -46.26629326 102.62706755 -48.7734375 100.203125 C-49.37671875 99.65011719 -49.98 99.09710938 -50.6015625 98.52734375 C-62.28854377 86.66251711 -64.12943805 70.17750533 -64.03417969 54.38110352 C-64.0234732 52.27265555 -64.03412195 50.1650626 -64.046875 48.05664062 C-64.06467992 31.66841092 -61.52444169 15.61381658 -49.92578125 3.23046875 C-36.09717513 -9.71838509 -15.7069657 -10.17634397 0 0 Z " fill="#FDFEFD" transform="translate(330.7734375,92.796875)"/>
<path d="M0 0 C1.01642578 -0.01611328 2.03285156 -0.03222656 3.08007812 -0.04882812 C18.86984631 -0.05889171 32.26583493 6.14244389 44.1875 16.3125 C58.23478661 30.69944466 61.51785843 47.89936888 61.64501953 67.23095703 C61.44401349 80.30878303 57.66588585 93.14637926 49.1875 103.3125 C48.56488281 104.116875 47.94226563 104.92125 47.30078125 105.75 C37.75915536 117.31988278 24.13124068 125.33707284 9.1875 127.3125 C-10.67837955 128.36125709 -26.27021414 124.14772105 -41.8125 111.3125 C-53.00309428 101.14280204 -59.93909406 85.24309549 -60.95507812 70.20166016 C-61.71660533 51.71908415 -59.00086847 35.44225909 -46.4375 21.0625 C-44.91323817 19.46240425 -43.37245163 17.87782152 -41.8125 16.3125 C-41.19761719 15.67441406 -40.58273437 15.03632812 -39.94921875 14.37890625 C-28.87955416 3.73590967 -14.93871399 -0.04682982 0 0 Z M-30.43359375 20.26171875 C-39.00581529 33.01077344 -40.01171966 47.06087587 -40.05273438 61.92871094 C-40.06241544 64.04402379 -40.09350502 66.15835249 -40.125 68.2734375 C-40.19047674 76.66269069 -39.36815712 84.2659756 -36.8125 92.3125 C-36.45929688 93.44945312 -36.10609375 94.58640625 -35.7421875 95.7578125 C-32.02583932 105.20008973 -25.95502891 113.36426803 -16.97265625 118.41796875 C-5.99688536 122.96308906 6.18669811 122.1899522 17.1875 118.3125 C27.92874828 113.11673339 33.36147282 104.32628807 37.25708008 93.44848633 C44.35987494 72.2871068 43.65654776 44.60331662 34.1875 24.3125 C28.28705043 14.49760584 20.5934367 9.02679241 9.62109375 6.0078125 C-6.20636011 2.80270808 -20.24477378 7.74085279 -30.43359375 20.26171875 Z " fill="#047145" transform="translate(306.8125,80.6875)"/>
<path d="M0 0 C2.05078125 0.03255208 4.1015625 0.06510417 6.15234375 0.09765625 C10.14570395 8.48859508 13.54910762 17.07646055 16.88452148 25.74246216 C24.79724484 46.28536209 32.96640513 66.72510811 41.15234375 87.16015625 C41.75230923 88.65814206 42.35227464 90.1561279 42.95223999 91.65411377 C46.34979182 100.13629084 49.74985086 108.6174599 53.15234375 117.09765625 C54.20035156 117.17113281 54.20035156 117.17113281 55.26953125 117.24609375 C56.17960938 117.32085937 57.0896875 117.395625 58.02734375 117.47265625 C58.93226563 117.54226562 59.8371875 117.611875 60.76953125 117.68359375 C63.15234375 118.09765625 63.15234375 118.09765625 65.15234375 120.09765625 C65.15234375 121.08765625 65.15234375 122.07765625 65.15234375 123.09765625 C50.63234375 123.09765625 36.11234375 123.09765625 21.15234375 123.09765625 C21.15234375 121.11765625 21.15234375 119.13765625 21.15234375 117.09765625 C25.11234375 117.09765625 29.07234375 117.09765625 33.15234375 117.09765625 C29.6241547 106.78037616 25.84129612 96.61025305 21.69335938 86.52441406 C21.36271484 85.71456055 21.03207031 84.90470703 20.69140625 84.0703125 C20.39443848 83.35109619 20.0974707 82.63187988 19.79150391 81.89086914 C19.15234375 80.09765625 19.15234375 80.09765625 19.15234375 78.09765625 C4.63234375 78.09765625 -9.88765625 78.09765625 -24.84765625 78.09765625 C-25.83765625 81.39765625 -26.82765625 84.69765625 -27.84765625 88.09765625 C-28.71901219 90.54803959 -29.61694481 92.98920991 -30.546875 95.41796875 C-30.78678665 96.04750458 -31.0266983 96.67704041 -31.27388 97.32565308 C-32.02432675 99.29260623 -32.77962706 101.25765055 -33.53515625 103.22265625 C-34.05175846 104.57409411 -34.5680368 105.92565583 -35.08398438 107.27734375 C-36.33481721 110.55221518 -37.59000325 113.82539695 -38.84765625 117.09765625 C-38.08477295 117.07590332 -37.32188965 117.05415039 -36.53588867 117.03173828 C-35.04085815 117.00635986 -35.04085815 117.00635986 -33.515625 116.98046875 C-32.5258667 116.95871582 -31.5361084 116.93696289 -30.51635742 116.91455078 C-27.84765625 117.09765625 -27.84765625 117.09765625 -25.16015625 118.97265625 C-23.84765625 121.09765625 -23.84765625 121.09765625 -23.84765625 123.09765625 C-36.05765625 123.09765625 -48.26765625 123.09765625 -60.84765625 123.09765625 C-60.84765625 121.11765625 -60.84765625 119.13765625 -60.84765625 117.09765625 C-54.41265625 116.60265625 -54.41265625 116.60265625 -47.84765625 116.09765625 C-45.5757589 110.28557164 -43.3051263 104.47299385 -41.03515625 98.66015625 C-40.68362488 97.76006836 -40.33209351 96.85998047 -39.96990967 95.93261719 C-34.76865194 82.6123444 -29.59186908 69.28276614 -24.43041992 55.94702148 C-12.06613959 24.00164836 -12.06613959 24.00164836 -6.72265625 10.59765625 C-6.3270752 9.60185547 -5.93149414 8.60605469 -5.52392578 7.58007812 C-5.17442871 6.70931641 -4.82493164 5.83855469 -4.46484375 4.94140625 C-4.17206543 4.21115234 -3.87928711 3.48089844 -3.57763672 2.72851562 C-2.41343655 0.12756007 -2.41343655 0.12756007 0 0 Z " fill="#077347" transform="translate(541.84765625,82.90234375)"/>
<path d="M0 0 C1.05848145 0.00870117 2.11696289 0.01740234 3.20751953 0.02636719 C10.5247489 0.16398118 17.22424434 0.78992069 24.125 3.375 C25.57519531 3.91447266 25.57519531 3.91447266 27.0546875 4.46484375 C29.43387125 5.39081416 31.78489574 6.3550873 34.125 7.375 C34.063125 6.59125 34.00125 5.8075 33.9375 5 C34.0303125 3.700625 34.0303125 3.700625 34.125 2.375 C37.125 0.375 37.125 0.375 40.125 0.375 C40.125 12.585 40.125 24.795 40.125 37.375 C37.815 37.375 35.505 37.375 33.125 37.375 C33.03863281 36.529375 32.95226562 35.68375 32.86328125 34.8125 C31.59564294 24.57835582 28.9897222 18.49285402 21.26171875 11.69921875 C15.08025108 7.86829089 9.24088804 6.91028651 2.0625 7.0625 C1.29873047 7.05927734 0.53496094 7.05605469 -0.25195312 7.05273438 C-7.78528842 7.12362119 -13.76070483 8.46740292 -19.36328125 13.6796875 C-23.38336452 18.18799794 -24.4815373 23.25064268 -24.203125 29.1171875 C-23.27704362 35.48950938 -20.44611848 39.28285616 -15.4375 43.25 C-7.66040307 48.55256609 0.99564336 52.25197047 9.52294922 56.17431641 C24.72111997 63.18732107 36.35959812 68.84419624 44.125 84.375 C44.93465477 95.85617008 44.36126417 104.28695909 37 113.5625 C28.26926538 122.94757233 16.33700242 127.07271112 3.77734375 127.61328125 C-11.46437141 127.97054667 -23.43301289 124.7607072 -36.875 117.375 C-36.83375 118.32375 -36.7925 119.2725 -36.75 120.25 C-36.875 123.375 -36.875 123.375 -38.875 125.375 C-40.195 125.375 -41.515 125.375 -42.875 125.375 C-42.875 111.515 -42.875 97.655 -42.875 83.375 C-40.895 83.375 -38.915 83.375 -36.875 83.375 C-36.52888672 84.93347656 -36.52888672 84.93347656 -36.17578125 86.5234375 C-33.41666473 98.51753013 -30.67069258 109.1842295 -19.875 116.375 C-11.27843571 121.49344906 -1.31030944 121.84615265 8.3203125 119.64453125 C15.1896547 117.35163093 20.08975067 114.63139892 24 108.375 C26.15396402 102.49351741 26.26444959 95.16638286 24.46875 89.19140625 C18.45684856 77.55630389 3.71593669 72.84646901 -7.52734375 67.8515625 C-8.49599365 67.4194043 -9.46464355 66.98724609 -10.46264648 66.54199219 C-12.35730163 65.70147622 -14.25638165 64.87084134 -16.16040039 64.05175781 C-25.76137637 59.81338683 -34.94720675 53.82666449 -39.9765625 44.28515625 C-42.63678621 37.41083983 -43.34376322 29.57146635 -40.890625 22.5625 C-37.70051401 15.94597351 -34.00844427 10.74591631 -27.75 6.75 C-26.88117188 6.18023437 -26.01234375 5.61046875 -25.1171875 5.0234375 C-16.89110731 0.84102082 -9.14723237 -0.12508538 0 0 Z " fill="#067246" transform="translate(179.875,80.625)"/>
<path d="M0 0 C16.83 0 33.66 0 51 0 C51 1.98 51 3.96 51 6 C45.39 6 39.78 6 34 6 C34 43.29 34 80.58 34 119 C56.21651463 120.47931871 56.21651463 120.47931871 76.015625 112.203125 C79.87965707 106.08915021 81.94711732 99.67610227 83.921875 92.76953125 C84.86346875 89.47736469 85.89175514 86.23909747 87 83 C88.32 83 89.64 83 91 83 C91.02799478 85.89590464 91.04729229 88.79151839 91.0625 91.6875 C91.07087891 92.46544922 91.07925781 93.24339844 91.08789062 94.04492188 C91.12660789 104.07269269 90.47921344 113.93651767 90 124 C60.3 124 30.6 124 0 124 C0 122.35 0 120.7 0 119 C5.28 119 10.56 119 16 119 C16 81.71 16 44.42 16 6 C10.72 6 5.44 6 0 6 C0 4.02 0 2.04 0 0 Z " fill="#087348" transform="translate(388,82)"/>
<path d="M0 0 C0.66 0 1.32 0 2 0 C4.57060228 6.49337673 7.1332838 12.98983775 9.69042969 19.48852539 C10.5616451 21.6998598 11.43468486 23.91047635 12.30957031 26.12036133 C13.56533136 29.29322244 14.81455221 32.4685903 16.0625 35.64453125 C16.45622803 36.63524124 16.84995605 37.62595123 17.25561523 38.64668274 C17.79617554 40.02777473 17.79617554 40.02777473 18.34765625 41.43676758 C18.66742432 42.2472908 18.98719238 43.05781403 19.31665039 43.89289856 C20 46 20 46 20 49 C7.46 49 -5.08 49 -18 49 C-16.00364454 42.34548181 -13.9399233 35.93764023 -11.42578125 29.4921875 C-11.09708542 28.64069122 -10.76838959 27.78919495 -10.42973328 26.91189575 C-9.39415434 24.23156111 -8.35342883 21.55326086 -7.3125 18.875 C-6.60317201 17.04179959 -5.89418462 15.20846734 -5.18554688 13.375 C-3.46095852 8.91513549 -1.73175628 4.45708585 0 0 Z " fill="#F7FAF9" transform="translate(538,106)"/>
<path d="M0 0 C3.89722286 2.59814857 6.21628296 5.56565266 7.3984375 10.14453125 C8.57615662 17.9108111 9.27236706 26.42500675 4.99609375 33.3203125 C2.48600645 36.61739086 0.68849261 38.54505155 -3.51953125 39.28515625 C-8.08064952 39.55184832 -10.61902837 39.20574713 -14.625 36.875 C-20.5345006 29.95656028 -20.73773599 23.30107277 -20.53515625 14.44921875 C-19.91624405 8.08624503 -18.11122882 4.58498118 -13.375 0.375 C-8.49110464 -1.9233037 -5.04919084 -1.78206736 0 0 Z " fill="#037144" transform="translate(334.1875,303.125)"/>
<path d="M0 0 C5.61 0 11.22 0 17 0 C17 0.99 17 1.98 17 3 C15.68 3.33 14.36 3.66 13 4 C12.67 9.28 12.34 14.56 12 20 C19.26 20 26.52 20 34 20 C34 14.39 34 8.78 34 3 C32.35 3 30.7 3 29 3 C29 2.01 29 1.02 29 0 C34.61 0 40.22 0 46 0 C46 0.99 46 1.98 46 3 C44.68 3.33 43.36 3.66 42 4 C42 16.54 42 29.08 42 42 C43.32 42.33 44.64 42.66 46 43 C46 43.99 46 44.98 46 46 C40.39 46 34.78 46 29 46 C29 45.01 29 44.02 29 43 C30.65 43 32.3 43 34 43 C34 36.73 34 30.46 34 24 C26.74 24 19.48 24 12 24 C12 30.27 12 36.54 12 43 C13.65 43 15.3 43 17 43 C17 43.99 17 44.98 17 46 C11.39 46 5.78 46 0 46 C0 45.01 0 44.02 0 43 C1.65 43 3.3 43 5 43 C4.67 30.13 4.34 17.26 4 4 C2.68 3.67 1.36 3.34 0 3 C0 2.01 0 1.02 0 0 Z " fill="#F2F7F5" transform="translate(396,299)"/>
<path d="M0 0 C1.30453125 -0.02578125 2.6090625 -0.0515625 3.953125 -0.078125 C9.91016348 0.43668079 13.66805075 2.60751855 17.5 7.125 C18.07234375 7.78242188 18.6446875 8.43984375 19.234375 9.1171875 C23.6559695 15.33932821 23.42687099 21.88153094 22.75 29.25 C21.11508712 36.41620496 17.99013341 41.31899085 11.75 45.25 C6.42791494 47.91104253 0.58132563 47.81572562 -5.25 47.25 C-8.625 46 -8.625 46 -11.25 44.25 C-12.095625 43.734375 -12.94125 43.21875 -13.8125 42.6875 C-19.45239351 37.04760649 -21.57429786 31.05372829 -21.8125 23.125 C-21.5110183 15.98993315 -20.31778711 11.35416404 -15.2734375 6.25 C-9.95383062 1.45268179 -7.28969652 0.08576114 0 0 Z M-10.51171875 8.76953125 C-14.87539116 15.7973405 -14.22361253 24.95547898 -12.77734375 32.8203125 C-11.20787063 37.76368294 -8.6793393 40.67292986 -4.25 43.25 C-0.1141078 44.07045341 3.74976763 44.19791805 7.62109375 42.36328125 C11.44086008 39.4960751 13.80913413 35.87526498 14.75 31.25 C15.3811341 22.7447166 15.66602654 14.77486877 10.9375 7.4375 C7.5700529 4.0700529 5.00134971 3.38651088 0.3125 2.875 C-4.59236646 3.39130173 -7.34448844 4.95512695 -10.51171875 8.76953125 Z " fill="#F5F9F7" transform="translate(327.25,298.75)"/>
<path d="M0 0 C10.89 0 21.78 0 33 0 C33 3.63 33 7.26 33 11 C31.68 11 30.36 11 29 11 C28.67 8.69 28.34 6.38 28 4 C22.72 4 17.44 4 12 4 C12 9.28 12 14.56 12 20 C15.63 20 19.26 20 23 20 C23.33 18.35 23.66 16.7 24 15 C24.99 15 25.98 15 27 15 C27 19.95 27 24.9 27 30 C26.01 30 25.02 30 24 30 C23.505 27.525 23.505 27.525 23 25 C19.37 24.67 15.74 24.34 12 24 C12 30.27 12 36.54 12 43 C17.94 43 23.88 43 30 43 C30.33 40.36 30.66 37.72 31 35 C32.32 35 33.64 35 35 35 C35 38.63 35 42.26 35 46 C23.45 46 11.9 46 0 46 C0 45.01 0 44.02 0 43 C1.98 42.505 1.98 42.505 4 42 C4 29.46 4 16.92 4 4 C2.68 3.67 1.36 3.34 0 3 C0 2.01 0 1.02 0 0 Z " fill="#F1F7F5" transform="translate(447,299)"/>
<path d="M0 0 C1.31613281 -0.00257813 2.63226563 -0.00515625 3.98828125 -0.0078125 C7.6875 0.125 7.6875 0.125 12.6875 1.125 C12.6875 4.755 12.6875 8.385 12.6875 12.125 C11.0375 12.125 9.3875 12.125 7.6875 12.125 C7.56375 10.990625 7.44 9.85625 7.3125 8.6875 C7.10625 7.511875 6.9 6.33625 6.6875 5.125 C3.48429603 3.52339801 0.16323478 3.63729808 -3.3125 4.125 C-5.93966577 5.58497987 -5.93966577 5.58497987 -7.3125 8.125 C-8.0625 11.125 -8.0625 11.125 -7.3125 14.125 C-3.10048177 18.03942999 1.66365755 20.11798936 6.84765625 22.46484375 C10.61634484 24.66799733 13.12141937 27.04446988 14.2890625 31.3359375 C14.34822788 36.79887408 13.17497693 39.68519963 9.48828125 43.71484375 C5.33472328 46.967413 1.42108143 47.39936316 -3.75 47.375 C-5.38775391 47.38273437 -5.38775391 47.38273437 -7.05859375 47.390625 C-10.3125 47.125 -10.3125 47.125 -16.3125 45.125 C-16.3125 40.835 -16.3125 36.545 -16.3125 32.125 C-14.6625 32.455 -13.0125 32.785 -11.3125 33.125 C-11.1171875 35.17578125 -10.921875 37.2265625 -10.7265625 39.27734375 C-10.58992188 39.88707031 -10.45328125 40.49679687 -10.3125 41.125 C-7.87295342 42.34477329 -6.15944151 42.32653813 -3.4375 42.375 C-2.14199219 42.41367187 -2.14199219 42.41367187 -0.8203125 42.453125 C2.20592056 42.05716927 3.53050216 41.2623441 5.6875 39.125 C6.43761367 35.66771642 6.43761367 35.66771642 5.6875 32.125 C1.51596204 28.18017606 -3.30014871 26.12680846 -8.47265625 23.78515625 C-12.24134484 21.58200267 -14.74641937 19.20553012 -15.9140625 14.9140625 C-15.97481522 9.30456109 -14.70122337 6.48714612 -10.8203125 2.4375 C-7.50401552 -0.44922483 -4.17309778 -0.02386901 0 0 Z " fill="#F3F8F6" transform="translate(503.3125,298.875)"/>
<path d="M0 0 C0.78117187 0.00193359 1.56234375 0.00386719 2.3671875 0.00585938 C3.17414063 0.01810547 3.98109375 0.03035156 4.8125 0.04296875 C5.61945313 0.04361328 6.42640625 0.04425781 7.2578125 0.04492188 C11.067919 0.07321475 14.06509428 0.29361732 17.8125 1.23046875 C17.8125 5.19046875 17.8125 9.15046875 17.8125 13.23046875 C16.4925 13.23046875 15.1725 13.23046875 13.8125 13.23046875 C13.3175 9.27046875 13.3175 9.27046875 12.8125 5.23046875 C7.02531238 3.78367184 1.9704581 3.1929889 -3.4375 5.79296875 C-8.07023836 9.89925957 -9.93467602 12.65393675 -10.53515625 18.7734375 C-10.79588974 28.48789813 -10.79588974 28.48789813 -7.1875 37.23046875 C-3.12915996 40.99185708 -0.65757118 42.37137012 4.8125 42.35546875 C6.1428125 42.35933594 6.1428125 42.35933594 7.5 42.36328125 C9.83926966 42.38174777 9.83926966 42.38174777 11.8125 41.23046875 C12.54325648 38.91640655 13.21388258 36.58218006 13.8125 34.23046875 C15.1325 34.23046875 16.4525 34.23046875 17.8125 34.23046875 C17.8125 37.86046875 17.8125 41.49046875 17.8125 45.23046875 C10.28510279 48.03136074 0.94950054 49.0398491 -6.5625 45.73046875 C-12.96772509 41.90361817 -17.29326123 36.41427993 -19.1875 29.23046875 C-19.99914593 21.62364761 -20.04999198 14.45389143 -15.1875 8.23046875 C-10.8803899 3.76346594 -6.4433212 -0.03740999 0 0 Z " fill="#F3F8F6" transform="translate(246.1875,298.76953125)"/>
<path d="M0 0 C12.87 0 25.74 0 39 0 C39 3.63 39 7.26 39 11 C37.68 11 36.36 11 35 11 C34.505 7.535 34.505 7.535 34 4 C30.37 4 26.74 4 23 4 C23 16.87 23 29.74 23 43 C24.98 43 26.96 43 29 43 C29 43.99 29 44.98 29 46 C22.73 46 16.46 46 10 46 C10 45.01 10 44.02 10 43 C12.475 42.505 12.475 42.505 15 42 C15.33 29.46 15.66 16.92 16 4 C12.37 4 8.74 4 5 4 C4.67 6.31 4.34 8.62 4 11 C2.68 11 1.36 11 0 11 C0 7.37 0 3.74 0 0 Z " fill="#F2F7F5" transform="translate(354,299)"/>
<path d="M0 0 C5.61 0 11.22 0 17 0 C17 0.99 17 1.98 17 3 C15.68 3.33 14.36 3.66 13 4 C12.67 16.87 12.34 29.74 12 43 C16.95 42.67 21.9 42.34 27 42 C27.66 39.03 28.32 36.06 29 33 C30.32 33 31.64 33 33 33 C33 37.29 33 41.58 33 46 C22.11 46 11.22 46 0 46 C0 45.01 0 44.02 0 43 C1.65 43 3.3 43 5 43 C4.67 30.13 4.34 17.26 4 4 C2.68 3.67 1.36 3.34 0 3 C0 2.01 0 1.02 0 0 Z " fill="#F8FBFA" transform="translate(269,299)"/>
</svg>
